<mxfile host="app.diagrams.net" modified="2021-03-25T03:07:02.637Z" agent="5.0 (Windows NT 10.0; Win64; x64) AppleWebKit/537.36 (KHTML, like Gecko) Chrome/88.0.4324.190 Safari/537.36" etag="GHqbeZ3lrbOpEsgqqJno" version="14.4.7" type="github">
  <diagram id="1EPJ-Hva98BP7Jjpk_XP" name="Page-1">
    <mxGraphModel dx="922" dy="692" grid="0" gridSize="10" guides="1" tooltips="1" connect="1" arrows="1" fold="1" page="1" pageScale="1" pageWidth="827" pageHeight="1169" math="0" shadow="0">
      <root>
        <mxCell id="0" />
        <mxCell id="1" parent="0" />
        <mxCell id="32YykprtaNkiTrBuCzoX-7" style="edgeStyle=orthogonalEdgeStyle;rounded=0;orthogonalLoop=1;jettySize=auto;html=1;exitX=1;exitY=0.5;exitDx=0;exitDy=0;entryX=0;entryY=0.5;entryDx=0;entryDy=0;fillColor=#dae8fc;strokeColor=#6c8ebf;" edge="1" parent="1" source="32YykprtaNkiTrBuCzoX-1" target="32YykprtaNkiTrBuCzoX-2">
          <mxGeometry relative="1" as="geometry" />
        </mxCell>
        <mxCell id="32YykprtaNkiTrBuCzoX-1" value="团队组建规划" style="rounded=0;whiteSpace=wrap;html=1;fillColor=#dae8fc;strokeColor=#6c8ebf;" vertex="1" parent="1">
          <mxGeometry x="190" y="180" width="109" height="60" as="geometry" />
        </mxCell>
        <mxCell id="32YykprtaNkiTrBuCzoX-8" style="edgeStyle=orthogonalEdgeStyle;rounded=0;orthogonalLoop=1;jettySize=auto;html=1;exitX=1;exitY=0.5;exitDx=0;exitDy=0;fillColor=#dae8fc;strokeColor=#6c8ebf;" edge="1" parent="1" source="32YykprtaNkiTrBuCzoX-2" target="32YykprtaNkiTrBuCzoX-3">
          <mxGeometry relative="1" as="geometry" />
        </mxCell>
        <mxCell id="32YykprtaNkiTrBuCzoX-2" value="报公司审核" style="rounded=0;whiteSpace=wrap;html=1;fillColor=#dae8fc;strokeColor=#6c8ebf;" vertex="1" parent="1">
          <mxGeometry x="341" y="180" width="120" height="60" as="geometry" />
        </mxCell>
        <mxCell id="32YykprtaNkiTrBuCzoX-9" style="edgeStyle=orthogonalEdgeStyle;rounded=0;orthogonalLoop=1;jettySize=auto;html=1;exitX=1;exitY=0.5;exitDx=0;exitDy=0;entryX=0.5;entryY=0;entryDx=0;entryDy=0;fillColor=#dae8fc;strokeColor=#6c8ebf;" edge="1" parent="1" source="32YykprtaNkiTrBuCzoX-3" target="32YykprtaNkiTrBuCzoX-6">
          <mxGeometry relative="1" as="geometry" />
        </mxCell>
        <mxCell id="32YykprtaNkiTrBuCzoX-3" value="成员招聘" style="rounded=0;whiteSpace=wrap;html=1;fillColor=#dae8fc;strokeColor=#6c8ebf;" vertex="1" parent="1">
          <mxGeometry x="509" y="180" width="120" height="60" as="geometry" />
        </mxCell>
        <mxCell id="32YykprtaNkiTrBuCzoX-4" value="正式上岗" style="rounded=0;whiteSpace=wrap;html=1;fillColor=#dae8fc;strokeColor=#6c8ebf;" vertex="1" parent="1">
          <mxGeometry x="510" y="340" width="120" height="60" as="geometry" />
        </mxCell>
        <mxCell id="32YykprtaNkiTrBuCzoX-12" style="edgeStyle=orthogonalEdgeStyle;rounded=0;orthogonalLoop=1;jettySize=auto;html=1;exitX=1;exitY=0.5;exitDx=0;exitDy=0;entryX=0;entryY=0.5;entryDx=0;entryDy=0;fillColor=#dae8fc;strokeColor=#6c8ebf;" edge="1" parent="1" source="32YykprtaNkiTrBuCzoX-5" target="32YykprtaNkiTrBuCzoX-4">
          <mxGeometry relative="1" as="geometry" />
        </mxCell>
        <mxCell id="32YykprtaNkiTrBuCzoX-5" value="试用考核" style="rounded=0;whiteSpace=wrap;html=1;fillColor=#dae8fc;strokeColor=#6c8ebf;" vertex="1" parent="1">
          <mxGeometry x="342" y="340" width="120" height="60" as="geometry" />
        </mxCell>
        <mxCell id="32YykprtaNkiTrBuCzoX-11" style="edgeStyle=orthogonalEdgeStyle;rounded=0;orthogonalLoop=1;jettySize=auto;html=1;exitX=1;exitY=0.5;exitDx=0;exitDy=0;fillColor=#dae8fc;strokeColor=#6c8ebf;" edge="1" parent="1" source="32YykprtaNkiTrBuCzoX-6" target="32YykprtaNkiTrBuCzoX-5">
          <mxGeometry relative="1" as="geometry" />
        </mxCell>
        <mxCell id="32YykprtaNkiTrBuCzoX-6" value="入职培训" style="rounded=0;whiteSpace=wrap;html=1;fillColor=#dae8fc;strokeColor=#6c8ebf;" vertex="1" parent="1">
          <mxGeometry x="190" y="340" width="120" height="60" as="geometry" />
        </mxCell>
      </root>
    </mxGraphModel>
  </diagram>
</mxfile>
